<?xml version="1.0" encoding="utf-8"?>
<!-- Generator: Adobe Illustrator 25.0.1, SVG Export Plug-In . SVG Version: 6.00 Build 0)  -->
<svg version="1.1" xmlns="http://www.w3.org/2000/svg" xmlns:xlink="http://www.w3.org/1999/xlink" x="0px" y="0px"
	 viewBox="0 0 200 200" style="enable-background:new 0 0 200 200;" xml:space="preserve">
<style type="text/css">
	.st0{fill:#F35325;}
	.st1{fill:#81BC06;}
	.st2{fill:#05A6F0;}
	.st3{fill:#FFBA08;}
	.st4{fill:#FFFFFF;}
</style>
<g id="图层_1">
	<rect class="st0" width="99" height="99"/>
	<rect x="101" class="st1" width="99" height="99"/>
	<rect y="101" class="st2" width="99" height="99"/>
	<rect x="101" y="101" class="st3" width="99" height="99"/>
</g>
<g id="图层_2">
	<g>
		<path class="st4" d="M76.87,65.01H90v0.8c-4.28,0.63-4.97,1.83-6.62,4.62c-1.54,2.23-2.91,4.63-4.68,6.97
			c1.6,1.77,7.48,9.08,8.62,11.65l-0.46,0.46c-1.37-0.51-4.23-1.71-4.97-2.46c-0.63-0.8-2.91-4.45-5.25-6.79
			c-4.97,6.39-8.45,8.79-12.85,8.79c-6.85,0-10.79-5.08-10.79-9.48c-0.06-5.82,4.91-8.51,9.36-11.48c-3.03-2.28-4.8-4.4-4.8-7.25
			c0-4.85,4.34-8.56,8.56-8.56c4.11,0,7.88,2.91,7.94,7.19c0,2.63-1.77,4.45-2.57,4.97l-4.62,2.97c2.28,1.6,7.37,5.31,10.91,9.19
			c2.63-3.71,3.77-7.25,3.77-8.39c0-1.48-1.26-1.88-4.63-2.4L76.87,65.01z M75.84,79.22c-2.8-3.37-7.31-7.02-12.5-10.33
			c-5.31,3.14-6.85,5.71-6.85,9.42c0,5.25,4.62,7.99,8.45,7.99C69.56,86.3,73.21,83.05,75.84,79.22z M60.54,59.3
			c0,3.54,2.4,5.77,5.25,7.48c3.43-1.77,4.97-4.23,4.97-7.42c-0.06-3.14-2.11-5.71-5.25-5.71C62.76,53.64,60.54,55.76,60.54,59.3z"
			/>
	</g>
	<g>
		<path class="st4" d="M51.27,130.65c2.96-6.69,7.28-7.67,10.32-7.67c3.2,0,5.76,0.75,9.76,2.48c3.76,1.43,6.32,2.56,9.12,2.56
			c3.68,0,5.44-1.8,7.12-6.02l2.4,1.05c-1.52,5.04-4.96,7.97-9.92,7.97c-3.92,0-7.6-1.58-11.04-3.01c-2.96-1.2-4.96-2.03-7.76-2.03
			c-3.6,0-5.84,2.03-7.44,6.02L51.27,130.65z"/>
	</g>
	<g>
		<path class="st4" d="M129.59,71.91l-15.91,17.91l-1.59-2.45l13.73-15.46l-13.73-15.46l1.59-2.45L129.59,71.91z"/>
	</g>
	<g>
		<path class="st4" d="M147,71.93l-15.91,17.91l-1.59-2.45l13.73-15.46L129.5,56.47l1.59-2.45L147,71.93z"/>
	</g>
	<rect x="111" y="116" class="st4" width="34" height="3.67"/>
	<rect x="111" y="133.33" class="st4" width="34" height="3.67"/>
</g>
</svg>
